# xmcd
# 
# Track frame offsets:
#     150
#     17575
#     32900
#     46100
#     60037
#     77150
#     96112
#     109112
#     124112
#     138025
#     154062
#     165712
#     181225
#     201337
#     215337
# 
# Disc length: 3103
# 
# Revision: 2
# Processed by: cddbd v1.5.2PL0 Copyright (c) Steve Scherf et al.
# Submitted via: fre:ac v1.0.31
# 
DISCID=ba0c1d0f
DTITLE=Albert Hammond - It Never Rains In Southern California
DYEAR=1999
DGENRE=Pop
TTITLE0=It Never Rains In Southern California
TTITLE1=The Free Electric Band
TTITLE2=Everything I Want To Do
TTITLE3=New York City Here I Come
TTITLE4=The Air That I Breath
TTITLE5=For The Peace Of All Mankind
TTITLE6=We're Running Out
TTITLE7=I'm A Train
TTITLE8=Moonlight Lady
TTITLE9=Dime Queen Of Nevada
TTITLE10=If You Gotta Break Another Heart
TTITLE11=These Are The Good Old Days
TTITLE12=When I Need You
TTITLE13=Rebecca
TTITLE14=The Girl They Call The Cool Breeze
EXTD=
EXTT0=
EXTT1=
EXTT2=
EXTT3=
EXTT4=
EXTT5=
EXTT6=
EXTT7=
EXTT8=
EXTT9=
EXTT10=
EXTT11=
EXTT12=
EXTT13=
EXTT14=
PLAYORDER=
